<svg id="Layer_1" data-name="Layer 1" xmlns="http://www.w3.org/2000/svg" xmlns:xlink="http://www.w3.org/1999/xlink" viewBox="0 0 374.28 374.3"><defs><style>.cls-1{fill:#00fefe;fill-opacity:0.99;}.cls-2{fill:url(#linear-gradient);}</style><linearGradient id="linear-gradient" x1="381.25" y1="197.84" x2="13.76" y2="198.34" gradientTransform="matrix(1, 0, 0, -1, 0, 394)" gradientUnits="userSpaceOnUse"><stop offset="0" stop-color="#0072be"/><stop offset="1" stop-color="#00fefe" stop-opacity="0.99"/></linearGradient></defs><title>sensei1</title><path class="cls-1" d="M17.61,182.77c.23.49.48.7.32,1.24a13.53,13.53,0,0,0-.27,3,1.53,1.53,0,0,0,.89.7c.39,1.73-1.47,3.9-1.85,5.6-.58,2.54-.46,5.23-1,7.78a2.59,2.59,0,0,0-1.63.51c-.16,1.29,1.41,2.32-.08,3.84a68.41,68.41,0,0,1-5.91-6,25.91,25.91,0,0,1-.11-6.7C10.7,189.14,14.41,186,17.61,182.77Z" transform="translate(-7.78 -8.75)"/><path class="cls-2" d="M191.66,9.07c2.51-.37,5.5-.74,7.66.86,3.74,2.79,7.05,6.86,10.33,10.2,4.94,5,10,10,15,15l58.79,58.84L351,161.36,371.6,182c3.42,3.43,7.54,6.94,10.38,10.85,0,2.15.12,4.3,0,6.45-3.67,4.59-8.33,8.7-12.49,12.85L346.59,235l-76.4,76.36-49.94,49.94-12.77,12.84c-2.92,2.94-5.91,6.51-9.37,8.78a49.66,49.66,0,0,1-6.1,0c-4.43-3.16-8.36-7.75-12.22-11.61l-20-20.06L88,279.48l-52.51-52.4L20.16,211.69c-2-2-4.56-4.07-6.2-6.26,1.49-1.52-.08-2.55.08-3.84a2.59,2.59,0,0,1,1.63-.51c.57-2.55.45-5.24,1-7.78.38-1.7,2.24-3.87,1.85-5.6a1.53,1.53,0,0,1-.89-.7,13.53,13.53,0,0,1,.27-3c.16-.54-.09-.75-.32-1.24L138.2,62.14l36-36,10.52-10.51A74,74,0,0,1,191.66,9.07Zm-5.07,125.19L79.36,178.72l-25.9,10.76c-5,2-10.43,3.63-15,6.51,5,2.93,10.48,4.53,15.81,6.78,9.62,4.06,19.18,8.3,28.9,12.12,10,4.29,20.12,8.29,30.17,12.49,12.68,5.29,25.31,10.76,38,15.94l24.68,10.19c3.57,1.47,7.44,2.73,10.91,4.4-.07-11.93.39-122.53-.26-123.62Zm16.39-.21c.6,8.08.17,16.47.17,24.58l0,45.86v35.87c0,5.72.49,11.82-.1,17.5,18.56-7,36.77-15.12,55-22.79,16.48-6.92,33.18-13.39,49.55-20.56l27.82-11.57c5.25-2.17,11-4.1,15.93-6.85-7-3.75-14.69-6.5-22-9.52l-32.89-13.7ZM51.9,220.2C62.56,231.56,74,242.38,85,253.4l62.2,62.24,29.14,29.18c2,2,8.57,9.05,10.63,10.26l0-49.1c0-10,.2-20,0-30-9.26-3.46-18.35-7.57-27.51-11.32L86.24,234.27l-25.06-10.4C58.28,222.68,55,220.73,51.9,220.2Zm134.61-183L94.6,129.09,66,157.66c-4.25,4.26-10,9.28-13.66,13.85l.08.32.18-.15,93-38.55,27.52-11.39c4.63-1.93,9.33-4.46,14.18-5.75-1-5.39-.35-14.51-.33-20.36V57.57c0-6.56.26-13.24,0-19.79,0-.37,0-.28-.31-.59Zm151,183.4c-11.76,4.23-23.21,9.56-34.77,14.31l-62,25.58c-12.56,5.22-25,10.6-37.68,15.62.34,17.59.1,35.23.11,52.82v16.71a74.28,74.28,0,0,1-.13,9.08c.75,0,.92-.2,1.46-.7,4.54-4.2,8.84-8.81,13.23-13.17l33-33,86.9-87ZM203.16,37a88.11,88.11,0,0,0-.09,9l.06,15.2,0,54.77c7.53,2.93,14.93,6.26,22.41,9.35l47.06,19.45,39.94,16.62c8.37,3.45,16.78,6.78,25.07,10.42-.07-1-1-1.67-1.73-2.34-11-10.76-21.81-21.79-32.71-32.69L243.3,77,216.8,50.4c-4.33-4.33-8.59-9.12-13.21-13.12A4.12,4.12,0,0,0,203.16,37Z" transform="translate(-7.78 -8.75)"/></svg>